<?xml version="1.0" encoding="UTF-8"?>
<svg id="Layer_1" xmlns="http://www.w3.org/2000/svg" version="1.1" xmlns:xlink="http://www.w3.org/1999/xlink" viewBox="0 0 100 100">
  <!-- Generator: Adobe Illustrator 29.3.1, SVG Export Plug-In . SVG Version: 2.1.0 Build 151)  -->
  <defs>
    <style>
      .st0 {
        fill: #1a1600;
      }

      .st1 {
        fill: #f3cd00;
      }

      .st2 {
        fill: #fad300;
      }

      .st3 {
        fill: #f8d100;
      }

      .st4 {
        fill: #151200;
      }

      .st5 {
        fill: #010100;
      }
    </style>
  </defs>
  <path class="st5" d="M60,101H1c0-33.3,0-66.7,0-100,33.3,0,66.7,0,100,0,0,33.3,0,66.7,0,100-13.5,0-27,0-41,0M37.9,55.5c-1.3-8.5-2.5-17.1-4.1-25.6-.2-1.3-2.2-3.2-3.5-3.3-4.6-.4-9.3-.2-14.5-.2-2.1,15.8-4.3,31.5-6.4,47.3h12.5c.4-2.8.8-5.4,1.3-8.1,7-.4,3.3,5.5,5.4,8.1h11.9c-.9-6-1.7-11.7-2.6-18.3M92.8,47.8c0-4.2.2-8.3,0-12.5-.2-4.6-2.6-7.8-7.2-8.2-6.2-.5-12.5-.1-19-.1v46.6h12.4v-18.6c9.9-.6,11.3-1.2,13.7-7.3M52.5,26.5h-9.4v47.2h12v-19.6c2.7-.1,5-.2,7.4-.4v-8.6c-2.7-.1-5.1-.3-7.3-.4v-8.9h8.4v-9.4c-3.5,0-6.8,0-11.1,0Z"/>
  <path class="st3" d="M38,56c.9,6.1,1.7,11.8,2.6,17.8h-11.9c-2.2-2.6,1.5-8.6-5.4-8.1-.4,2.7-.8,5.3-1.3,8.1h-12.5c2.1-15.8,4.3-31.5,6.4-47.3,5.2,0,9.9-.2,14.5.2,1.3.1,3.2,2,3.5,3.3,1.6,8.5,2.8,17,4.1,26M26,45.7c-.2-1.2-.4-2.3-.7-3.5-1.5,3.9-1.9,7.7-2.4,11.5-.5,3.6,1.2,3.9,4.1,2.7-.4-3.4-.7-6.6-1-10.8Z"/>
  <path class="st1" d="M92.7,48.2c-2.4,5.6-3.7,6.3-13.7,6.8v18.6h-12.4V27c6.5,0,12.8-.4,19,.1,4.5.3,7,3.6,7.2,8.2.1,4.1,0,8.3-.1,12.9M78.8,39.5v7.5c4.1-2,4.5-2.5,4-7.9-.2-1.6-1.3-3.2-2.3-5.5-1.1,1.5-1.5,1.7-1.5,1.9-.1,1-.1,2-.2,3.9Z"/>
  <path class="st2" d="M53,26.5c3.8,0,7.1,0,10.6,0v9.4h-8.4v8.9c2.3.1,4.6.3,7.3.4v8.6c-2.4.1-4.7.2-7.4.4v19.6h-12V26.5c3.1,0,6.3,0,9.9,0Z"/>
  <path class="st0" d="M26,46.1c.3,3.7.7,7,1,10.3-3,1.1-4.6.9-4.1-2.7.5-3.8,1-7.6,2.4-11.5.2,1.2.4,2.3.7,3.9Z"/>
  <path class="st4" d="M78.8,39c0-1.4,0-2.4.2-3.4,0-.3.4-.5,1.5-1.9,1,2.3,2.1,3.8,2.3,5.5.5,5.4.2,5.8-4,7.9,0-2.7,0-5.1,0-8Z"/>
</svg>