<svg version="1.1" id="Layer_1" xmlns="http://www.w3.org/2000/svg" xmlns:xlink="http://www.w3.org/1999/xlink" x="0px" y="0px"
	 width="100%" viewBox="0 0 100 100" enable-background="new 0 0 100 100" xml:space="preserve">
<path fill="#010100" opacity="1.000000" stroke="none" 
	d="
M60.000000,101.000000 
	C40.000004,101.000000 20.500008,101.000000 1.000008,101.000000 
	C1.000005,67.666679 1.000005,34.333351 1.000003,1.000021 
	C34.333317,1.000014 67.666634,1.000014 100.999969,1.000007 
	C100.999977,34.333313 100.999977,67.666626 100.999985,100.999969 
	C87.500000,101.000000 74.000000,101.000000 60.000000,101.000000 
M37.902401,55.531719 
	C36.592976,46.996483 35.412704,38.437309 33.839973,29.950869 
	C33.593719,28.622084 31.640858,26.745068 30.344465,26.631140 
	C25.732136,26.225811 21.062479,26.472820 15.821111,26.472820 
	C13.678373,42.310902 11.559397,57.973354 9.420479,73.783203 
	C14.064055,73.783203 17.991369,73.783203 21.956175,73.783203 
	C22.392746,70.973694 22.795391,68.382515 23.220829,65.644669 
	C30.186239,65.219406 26.481339,71.151161 28.666172,73.791489 
	C32.255356,73.791489 36.172546,73.791489 40.525093,73.791489 
	C39.657078,67.816521 38.828445,62.112617 37.902401,55.531719 
M92.818497,47.794670 
	C92.849152,43.641800 93.018585,39.484066 92.873238,35.337364 
	C92.713036,30.766638 90.242111,27.495481 85.709251,27.145500 
	C79.496399,26.665802 73.218727,27.025564 66.727745,27.025564 
	C66.727745,42.607071 66.727745,58.152168 66.727745,73.630127 
	C70.892113,73.630127 74.771393,73.630127 79.086594,73.630127 
	C79.086594,67.163719 79.086594,61.080994 79.086594,55.050175 
	C89.013390,54.495178 90.372963,53.832329 92.818497,47.794670 
M52.523476,26.478184 
	C49.405197,26.478184 46.286919,26.478184 43.152939,26.478184 
	C43.152939,42.632229 43.152939,58.189709 43.152939,73.722000 
	C47.233387,73.722000 50.977283,73.722000 55.154221,73.722000 
	C55.154221,67.029907 55.154221,60.613464 55.154221,54.171818 
	C57.869934,54.036617 60.142910,53.923458 62.550598,53.803593 
	C62.550598,50.780048 62.550598,48.054028 62.550598,45.171600 
	C59.877728,45.023731 57.480129,44.891094 55.228714,44.766541 
	C55.228714,41.629841 55.228714,39.014183 55.228714,35.864441 
	C58.157486,35.864441 60.875340,35.864441 63.604668,35.864441 
	C63.604668,32.548492 63.604668,29.783237 63.604668,26.478235 
	C60.078392,26.478235 56.783085,26.478235 52.523476,26.478184 
z"/>
<path fill="#F8D100" opacity="1.000000" stroke="none" 
	d="
M37.951107,55.970215 
	C38.828445,62.112617 39.657078,67.816521 40.525093,73.791489 
	C36.172546,73.791489 32.255356,73.791489 28.666172,73.791489 
	C26.481339,71.151161 30.186239,65.219406 23.220829,65.644669 
	C22.795391,68.382515 22.392746,70.973694 21.956175,73.783203 
	C17.991369,73.783203 14.064055,73.783203 9.420479,73.783203 
	C11.559397,57.973354 13.678373,42.310902 15.821111,26.472820 
	C21.062479,26.472820 25.732136,26.225811 30.344465,26.631140 
	C31.640858,26.745068 33.593719,28.622084 33.839973,29.950869 
	C35.412704,38.437309 36.592976,46.996483 37.951107,55.970215 
M26.030830,45.705841 
	C25.809336,44.547718 25.587839,43.389591 25.366344,42.231468 
	C23.907755,46.097740 23.489155,49.927982 22.953873,53.741848 
	C22.446350,57.357929 24.113688,57.594940 27.080610,56.470940 
	C26.729000,53.094601 26.388916,49.828930 26.030830,45.705841 
z"/>
<path fill="#F3CD00" opacity="1.000000" stroke="none" 
	d="
M92.737518,48.211079 
	C90.372963,53.832329 89.013390,54.495178 79.086594,55.050175 
	C79.086594,61.080994 79.086594,67.163719 79.086594,73.630127 
	C74.771393,73.630127 70.892113,73.630127 66.727745,73.630127 
	C66.727745,58.152168 66.727745,42.607071 66.727745,27.025564 
	C73.218727,27.025564 79.496399,26.665802 85.709251,27.145500 
	C90.242111,27.495481 92.713036,30.766638 92.873238,35.337364 
	C93.018585,39.484066 92.849152,43.641800 92.737518,48.211079 
M78.808937,39.490311 
	C78.808937,41.875713 78.808937,44.261116 78.808937,46.997952 
	C82.947472,44.965233 83.280334,44.505878 82.769974,39.128532 
	C82.613548,37.480324 81.463203,35.926449 80.481506,33.671207 
	C79.350891,35.122364 79.027870,35.348839 78.997459,35.609455 
	C78.883041,36.589886 78.863968,37.581444 78.808937,39.490311 
z"/>
<path fill="#FAD300" opacity="1.000000" stroke="none" 
	d="
M53.005630,26.478210 
	C56.783085,26.478235 60.078392,26.478235 63.604668,26.478235 
	C63.604668,29.783237 63.604668,32.548492 63.604668,35.864441 
	C60.875340,35.864441 58.157486,35.864441 55.228714,35.864441 
	C55.228714,39.014183 55.228714,41.629841 55.228714,44.766541 
	C57.480129,44.891094 59.877728,45.023731 62.550598,45.171600 
	C62.550598,48.054028 62.550598,50.780048 62.550598,53.803593 
	C60.142910,53.923458 57.869934,54.036617 55.154221,54.171818 
	C55.154221,60.613464 55.154221,67.029907 55.154221,73.722000 
	C50.977283,73.722000 47.233387,73.722000 43.152939,73.722000 
	C43.152939,58.189709 43.152939,42.632229 43.152939,26.478184 
	C46.286919,26.478184 49.405197,26.478184 53.005630,26.478210 
z"/>
<path fill="#1A1600" opacity="1.000000" stroke="none" 
	d="
M26.039829,46.134548 
	C26.388916,49.828930 26.729000,53.094601 27.080610,56.470940 
	C24.113688,57.594940 22.446350,57.357929 22.953873,53.741848 
	C23.489155,49.927982 23.907755,46.097740 25.366344,42.231468 
	C25.587839,43.389591 25.809336,44.547718 26.039829,46.134548 
z"/>
<path fill="#151200" opacity="1.000000" stroke="none" 
	d="
M78.809059,39.029572 
	C78.863968,37.581444 78.883041,36.589886 78.997459,35.609455 
	C79.027870,35.348839 79.350891,35.122364 80.481506,33.671207 
	C81.463203,35.926449 82.613548,37.480324 82.769974,39.128532 
	C83.280334,44.505878 82.947472,44.965233 78.808937,46.997952 
	C78.808937,44.261116 78.808937,41.875713 78.809059,39.029572 
z"/>
</svg>