<?xml version="1.0" encoding="UTF-8"?>
<svg xmlns="http://www.w3.org/2000/svg" version="1.1" viewBox="0 0 100 100">
  <defs>
    <style>
      .cls-1 {
        fill: #fff;
        stroke: #000;
        stroke-miterlimit: 10;
        stroke-width: 8px;
      }
    </style>
  </defs>
  <!-- Generator: Adobe Illustrator 28.7.5, SVG Export Plug-In . SVG Version: 1.2.0 Build 176)  -->
  <g>
    <g id="Capa_1">
      <circle class="cls-1" cx="49.6" cy="50" r="39.4"/>
      <path d="M39,37.2l-4.9-5c1.6-2.3,4-4.2,7-5.6s6.3-2.1,9.9-2.1v6.7c-2.3,0-4.4.6-6.6,1.7-2.1,1.1-3.9,2.6-5.4,4.4ZM49.8,75.8c-1.4,0-2.7-.5-3.7-1.5s-1.5-2.2-1.5-3.7.5-2.7,1.5-3.7c1-1,2.2-1.5,3.7-1.5s2.7.5,3.7,1.5c1,1,1.5,2.2,1.5,3.7s-.5,2.7-1.5,3.7-2.2,1.5-3.7,1.5ZM46.2,59.1v-3.4c0-2.3.5-4.4,1.4-6.1,1-1.8,2.4-3.3,4.3-4.5,1.9-1.2,3.3-2.5,4.3-3.8.9-1.4,1.4-2.9,1.4-4.5s-.6-3.1-1.8-4.1c-1.2-1-2.8-1.5-5-1.5v-6.7c4.6,0,8.2,1,10.7,3.1s3.8,5,3.8,8.8-.7,5-2,7.1c-1.3,2.1-3.3,4-5.9,5.7-1.5,1-2.6,2.1-3.4,3.2s-1.1,2.4-1.1,3.8v2.9h-6.9Z"/>
    </g>
  </g>
</svg>